<mxfile host="Electron" modified="2023-07-12T11:22:51.705Z" agent="Mozilla/5.0 (Windows NT 10.0; Win64; x64) AppleWebKit/537.36 (KHTML, like Gecko) draw.io/21.6.1 Chrome/112.0.5615.204 Electron/24.6.1 Safari/537.36" etag="ru5k5Kpf0nZzSLGvwHbE" version="21.6.1" type="device">
  <diagram name="Страница 1" id="S5I4MgPSoBJhPXdxnbfG">
    <mxGraphModel dx="2823" dy="1505" grid="1" gridSize="10" guides="1" tooltips="1" connect="1" arrows="1" fold="1" page="1" pageScale="1" pageWidth="827" pageHeight="1169" math="0" shadow="0">
      <root>
        <mxCell id="0" />
        <mxCell id="1" parent="0" />
        <mxCell id="qtnn5yiQqdt-8949Kgfr-95" value="" style="rounded=0;whiteSpace=wrap;html=1;dashed=1;" parent="1" vertex="1">
          <mxGeometry x="-400" y="730" width="340" height="80" as="geometry" />
        </mxCell>
        <mxCell id="qtnn5yiQqdt-8949Kgfr-93" value="" style="rounded=0;whiteSpace=wrap;html=1;dashed=1;" parent="1" vertex="1">
          <mxGeometry x="-455" y="570" width="390" height="120" as="geometry" />
        </mxCell>
        <mxCell id="qtnn5yiQqdt-8949Kgfr-94" value="" style="rounded=0;whiteSpace=wrap;html=1;dashed=1;" parent="1" vertex="1">
          <mxGeometry x="-490" y="85" width="430" height="170" as="geometry" />
        </mxCell>
        <mxCell id="qtnn5yiQqdt-8949Kgfr-92" value="" style="rounded=0;whiteSpace=wrap;html=1;dashed=1;" parent="1" vertex="1">
          <mxGeometry x="-490" y="295" width="480" height="240" as="geometry" />
        </mxCell>
        <mxCell id="qtnn5yiQqdt-8949Kgfr-2" value="User" style="swimlane;fontStyle=0;childLayout=stackLayout;horizontal=1;startSize=30;horizontalStack=0;resizeParent=1;resizeParentMax=0;resizeLast=0;collapsible=1;marginBottom=0;whiteSpace=wrap;html=1;points=[[0,0,0,0,0],[0,0.25,0,0,0],[0,0.5,0,0,0],[0,0.75,0,0,0],[0,1,0,0,0],[0.25,0,0,0,0],[0.25,1,0,0,0],[0.5,0,0,0,0],[0.5,1,0,0,0],[0.75,0,0,0,0],[0.75,1,0,0,0],[1,0,0,0,0],[1,0.25,0,0,0],[1,0.5,0,0,0],[1,0.75,0,0,0],[1,1,0,0,0]];fillColor=#ffe6cc;strokeColor=#d79b00;perimeterSpacing=9;swimlaneLine=1;" parent="1" vertex="1">
          <mxGeometry x="-480" y="115" width="270" height="130" as="geometry" />
        </mxCell>
        <mxCell id="qtnn5yiQqdt-8949Kgfr-3" value="Регистрация новых пользователей." style="text;strokeColor=none;fillColor=none;align=left;verticalAlign=middle;spacingLeft=4;spacingRight=4;overflow=hidden;points=[[0,0.5],[1,0.5]];portConstraint=eastwest;rotatable=0;whiteSpace=wrap;html=1;" parent="qtnn5yiQqdt-8949Kgfr-2" vertex="1">
          <mxGeometry y="30" width="270" height="20" as="geometry" />
        </mxCell>
        <mxCell id="qtnn5yiQqdt-8949Kgfr-4" value="Авторизация пользователей на&amp;nbsp;основе JWT." style="text;strokeColor=none;fillColor=none;align=left;verticalAlign=middle;spacingLeft=4;spacingRight=4;overflow=hidden;points=[[0,0.5],[1,0.5]];portConstraint=eastwest;rotatable=0;whiteSpace=wrap;html=1;" parent="qtnn5yiQqdt-8949Kgfr-2" vertex="1">
          <mxGeometry y="50" width="270" height="20" as="geometry" />
        </mxCell>
        <mxCell id="qtnn5yiQqdt-8949Kgfr-5" value="Смена пароля, имени пользователя.&lt;br&gt;" style="text;strokeColor=none;fillColor=none;align=left;verticalAlign=middle;spacingLeft=4;spacingRight=4;overflow=hidden;points=[[0,0.5],[1,0.5]];portConstraint=eastwest;rotatable=0;whiteSpace=wrap;html=1;" parent="qtnn5yiQqdt-8949Kgfr-2" vertex="1">
          <mxGeometry y="70" width="270" height="20" as="geometry" />
        </mxCell>
        <mxCell id="qtnn5yiQqdt-8949Kgfr-34" value="Разделение пользователей по&amp;nbsp;ролям: «Исполнители», «Заказчики»." style="text;strokeColor=none;fillColor=none;spacingLeft=4;spacingRight=4;overflow=hidden;rotatable=0;points=[[0,0.5],[1,0.5]];portConstraint=eastwest;fontSize=12;whiteSpace=wrap;html=1;" parent="qtnn5yiQqdt-8949Kgfr-2" vertex="1">
          <mxGeometry y="90" width="270" height="40" as="geometry" />
        </mxCell>
        <mxCell id="qtnn5yiQqdt-8949Kgfr-6" value="Notification" style="swimlane;fontStyle=0;childLayout=stackLayout;horizontal=1;startSize=30;horizontalStack=0;resizeParent=1;resizeParentMax=0;resizeLast=0;collapsible=1;marginBottom=0;whiteSpace=wrap;html=1;fillColor=#dae8fc;strokeColor=#6c8ebf;" parent="1" vertex="1">
          <mxGeometry x="-390" y="740" width="170" height="60" as="geometry" />
        </mxCell>
        <mxCell id="qtnn5yiQqdt-8949Kgfr-7" value="&amp;nbsp;Рассылка почтовых уведомлений на&amp;nbsp;email о&amp;nbsp;появлении новых заданий." style="text;strokeColor=none;fillColor=none;align=left;verticalAlign=middle;spacingLeft=4;spacingRight=4;overflow=hidden;points=[[0,0.5],[1,0.5]];portConstraint=eastwest;rotatable=0;whiteSpace=wrap;html=1;" parent="qtnn5yiQqdt-8949Kgfr-6" vertex="1">
          <mxGeometry y="30" width="170" height="30" as="geometry" />
        </mxCell>
        <mxCell id="qtnn5yiQqdt-8949Kgfr-10" value="" style="endArrow=classic;html=1;rounded=0;" parent="1" edge="1">
          <mxGeometry width="50" height="50" relative="1" as="geometry">
            <mxPoint x="-750" y="380" as="sourcePoint" />
            <mxPoint x="-703" y="380" as="targetPoint" />
          </mxGeometry>
        </mxCell>
        <mxCell id="qtnn5yiQqdt-8949Kgfr-11" value="Tasks" style="swimlane;fontStyle=0;childLayout=stackLayout;horizontal=1;startSize=30;horizontalStack=0;resizeParent=1;resizeParentMax=0;resizeLast=0;collapsible=1;marginBottom=0;whiteSpace=wrap;html=1;fillColor=#fff2cc;strokeColor=#d6b656;" parent="1" vertex="1">
          <mxGeometry x="-470" y="295" width="310" height="220" as="geometry" />
        </mxCell>
        <mxCell id="qtnn5yiQqdt-8949Kgfr-13" value="&amp;nbsp;Создание, редактирование, удаление заданий." style="text;strokeColor=none;fillColor=none;align=left;verticalAlign=middle;spacingLeft=4;spacingRight=4;overflow=hidden;points=[[0,0.5],[1,0.5]];portConstraint=eastwest;rotatable=0;whiteSpace=wrap;html=1;" parent="qtnn5yiQqdt-8949Kgfr-11" vertex="1">
          <mxGeometry y="30" width="310" height="20" as="geometry" />
        </mxCell>
        <mxCell id="qtnn5yiQqdt-8949Kgfr-36" value="Просмотр детальной информации о&amp;nbsp;задании." style="text;strokeColor=none;fillColor=none;spacingLeft=4;spacingRight=4;overflow=hidden;rotatable=0;points=[[0,0.5],[1,0.5]];portConstraint=eastwest;fontSize=12;whiteSpace=wrap;html=1;" parent="qtnn5yiQqdt-8949Kgfr-11" vertex="1">
          <mxGeometry y="50" width="310" height="20" as="geometry" />
        </mxCell>
        <mxCell id="qtnn5yiQqdt-8949Kgfr-37" value="Загрузка изображений для заданий." style="text;strokeColor=none;fillColor=none;spacingLeft=4;spacingRight=4;overflow=hidden;rotatable=0;points=[[0,0.5],[1,0.5]];portConstraint=eastwest;fontSize=12;whiteSpace=wrap;html=1;" parent="qtnn5yiQqdt-8949Kgfr-11" vertex="1">
          <mxGeometry y="70" width="310" height="20" as="geometry" />
        </mxCell>
        <mxCell id="qtnn5yiQqdt-8949Kgfr-39" value="Пагинация для списка заданий." style="text;strokeColor=none;fillColor=none;spacingLeft=4;spacingRight=4;overflow=hidden;rotatable=0;points=[[0,0.5],[1,0.5]];portConstraint=eastwest;fontSize=12;whiteSpace=wrap;html=1;" parent="qtnn5yiQqdt-8949Kgfr-11" vertex="1">
          <mxGeometry y="90" width="310" height="20" as="geometry" />
        </mxCell>
        <mxCell id="qtnn5yiQqdt-8949Kgfr-40" value="Категоризация заданий." style="text;strokeColor=none;fillColor=none;spacingLeft=4;spacingRight=4;overflow=hidden;rotatable=0;points=[[0,0.5],[1,0.5]];portConstraint=eastwest;fontSize=12;whiteSpace=wrap;html=1;" parent="qtnn5yiQqdt-8949Kgfr-11" vertex="1">
          <mxGeometry y="110" width="310" height="20" as="geometry" />
        </mxCell>
        <mxCell id="qtnn5yiQqdt-8949Kgfr-41" value="Фильтрация заданий." style="text;strokeColor=none;fillColor=none;spacingLeft=4;spacingRight=4;overflow=hidden;rotatable=0;points=[[0,0.5],[1,0.5]];portConstraint=eastwest;fontSize=12;whiteSpace=wrap;html=1;" parent="qtnn5yiQqdt-8949Kgfr-11" vertex="1">
          <mxGeometry y="130" width="310" height="20" as="geometry" />
        </mxCell>
        <mxCell id="qtnn5yiQqdt-8949Kgfr-42" value="Разбивка заданий по&amp;nbsp;тегам." style="text;strokeColor=none;fillColor=none;spacingLeft=4;spacingRight=4;overflow=hidden;rotatable=0;points=[[0,0.5],[1,0.5]];portConstraint=eastwest;fontSize=12;whiteSpace=wrap;html=1;" parent="qtnn5yiQqdt-8949Kgfr-11" vertex="1">
          <mxGeometry y="150" width="310" height="20" as="geometry" />
        </mxCell>
        <mxCell id="qtnn5yiQqdt-8949Kgfr-52" value="Участие в&amp;nbsp;обсуждении заданий." style="text;strokeColor=none;fillColor=none;spacingLeft=4;spacingRight=4;overflow=hidden;rotatable=0;points=[[0,0.5],[1,0.5]];portConstraint=eastwest;fontSize=12;whiteSpace=wrap;html=1;" parent="qtnn5yiQqdt-8949Kgfr-11" vertex="1">
          <mxGeometry y="170" width="310" height="20" as="geometry" />
        </mxCell>
        <mxCell id="C0P8GJzzqPXL-z4xFH53-1" value="Коментарии" style="text;strokeColor=none;fillColor=none;spacingLeft=4;spacingRight=4;overflow=hidden;rotatable=0;points=[[0,0.5],[1,0.5]];portConstraint=eastwest;fontSize=12;whiteSpace=wrap;html=1;" parent="qtnn5yiQqdt-8949Kgfr-11" vertex="1">
          <mxGeometry y="190" width="310" height="30" as="geometry" />
        </mxCell>
        <mxCell id="qtnn5yiQqdt-8949Kgfr-15" value="HTTP" style="text;strokeColor=none;align=center;fillColor=none;html=1;verticalAlign=middle;whiteSpace=wrap;rounded=0;" parent="1" vertex="1">
          <mxGeometry x="-750" y="350" width="37" height="30" as="geometry" />
        </mxCell>
        <mxCell id="qtnn5yiQqdt-8949Kgfr-17" value="API GATEWAY" style="whiteSpace=wrap;html=1;aspect=fixed;fillColor=#f8cecc;strokeColor=#b85450;" parent="1" vertex="1">
          <mxGeometry x="-680" y="360" width="90" height="90" as="geometry" />
        </mxCell>
        <mxCell id="qtnn5yiQqdt-8949Kgfr-44" value="Review" style="swimlane;fontStyle=0;childLayout=stackLayout;horizontal=1;startSize=26;horizontalStack=0;resizeParent=1;resizeParentMax=0;resizeLast=0;collapsible=1;marginBottom=0;align=center;fontSize=14;fillColor=#d5e8d4;strokeColor=#82b366;" parent="1" vertex="1">
          <mxGeometry x="-435" y="570" width="220" height="110" as="geometry" />
        </mxCell>
        <mxCell id="qtnn5yiQqdt-8949Kgfr-45" value="Отзывы" style="text;strokeColor=none;fillColor=none;spacingLeft=4;spacingRight=4;overflow=hidden;rotatable=0;points=[[0,0.5],[1,0.5]];portConstraint=eastwest;fontSize=12;whiteSpace=wrap;html=1;" parent="qtnn5yiQqdt-8949Kgfr-44" vertex="1">
          <mxGeometry y="26" width="220" height="24" as="geometry" />
        </mxCell>
        <mxCell id="qtnn5yiQqdt-8949Kgfr-46" value="Статистика по&amp;nbsp;выполненным заданиям." style="text;strokeColor=none;fillColor=none;spacingLeft=4;spacingRight=4;overflow=hidden;rotatable=0;points=[[0,0.5],[1,0.5]];portConstraint=eastwest;fontSize=12;whiteSpace=wrap;html=1;" parent="qtnn5yiQqdt-8949Kgfr-44" vertex="1">
          <mxGeometry y="50" width="220" height="30" as="geometry" />
        </mxCell>
        <mxCell id="qtnn5yiQqdt-8949Kgfr-47" value="Расчёт рейтинга пользователя." style="text;strokeColor=none;fillColor=none;spacingLeft=4;spacingRight=4;overflow=hidden;rotatable=0;points=[[0,0.5],[1,0.5]];portConstraint=eastwest;fontSize=12;whiteSpace=wrap;html=1;" parent="qtnn5yiQqdt-8949Kgfr-44" vertex="1">
          <mxGeometry y="80" width="220" height="30" as="geometry" />
        </mxCell>
        <mxCell id="qtnn5yiQqdt-8949Kgfr-55" value="" style="endArrow=none;dashed=1;html=1;dashPattern=1 3;strokeWidth=2;rounded=0;" parent="1" edge="1">
          <mxGeometry width="50" height="50" relative="1" as="geometry">
            <mxPoint x="-697" y="840" as="sourcePoint" />
            <mxPoint x="-697" y="60" as="targetPoint" />
          </mxGeometry>
        </mxCell>
        <mxCell id="qtnn5yiQqdt-8949Kgfr-56" value="" style="endArrow=none;dashed=1;html=1;dashPattern=1 3;strokeWidth=2;rounded=0;" parent="1" edge="1">
          <mxGeometry width="50" height="50" relative="1" as="geometry">
            <mxPoint x="-697" y="65" as="sourcePoint" />
            <mxPoint x="90" y="65" as="targetPoint" />
          </mxGeometry>
        </mxCell>
        <mxCell id="qtnn5yiQqdt-8949Kgfr-57" value="" style="endArrow=none;dashed=1;html=1;dashPattern=1 3;strokeWidth=2;rounded=0;" parent="1" edge="1">
          <mxGeometry width="50" height="50" relative="1" as="geometry">
            <mxPoint x="90" y="840" as="sourcePoint" />
            <mxPoint x="90" y="70" as="targetPoint" />
            <Array as="points">
              <mxPoint x="90" y="465" />
            </Array>
          </mxGeometry>
        </mxCell>
        <mxCell id="qtnn5yiQqdt-8949Kgfr-58" value="" style="endArrow=none;dashed=1;html=1;dashPattern=1 3;strokeWidth=2;rounded=0;" parent="1" edge="1">
          <mxGeometry width="50" height="50" relative="1" as="geometry">
            <mxPoint x="-697" y="838" as="sourcePoint" />
            <mxPoint x="90" y="838" as="targetPoint" />
          </mxGeometry>
        </mxCell>
        <mxCell id="qtnn5yiQqdt-8949Kgfr-59" value="" style="shape=actor;whiteSpace=wrap;html=1;" parent="1" vertex="1">
          <mxGeometry x="-790" y="335" width="40" height="60" as="geometry" />
        </mxCell>
        <mxCell id="qtnn5yiQqdt-8949Kgfr-60" value="" style="endArrow=none;html=1;rounded=0;" parent="1" edge="1">
          <mxGeometry width="50" height="50" relative="1" as="geometry">
            <mxPoint x="-590" y="404.5" as="sourcePoint" />
            <mxPoint x="-550" y="405" as="targetPoint" />
          </mxGeometry>
        </mxCell>
        <mxCell id="qtnn5yiQqdt-8949Kgfr-61" value="" style="endArrow=none;html=1;rounded=0;" parent="1" edge="1">
          <mxGeometry width="50" height="50" relative="1" as="geometry">
            <mxPoint x="-550" y="780" as="sourcePoint" />
            <mxPoint x="-550" y="175" as="targetPoint" />
          </mxGeometry>
        </mxCell>
        <mxCell id="qtnn5yiQqdt-8949Kgfr-62" value="" style="endArrow=classic;html=1;rounded=0;entryX=-0.002;entryY=0.541;entryDx=0;entryDy=0;entryPerimeter=0;" parent="1" target="qtnn5yiQqdt-8949Kgfr-94" edge="1">
          <mxGeometry width="50" height="50" relative="1" as="geometry">
            <mxPoint x="-550" y="175" as="sourcePoint" />
            <mxPoint x="-390" y="175" as="targetPoint" />
          </mxGeometry>
        </mxCell>
        <mxCell id="qtnn5yiQqdt-8949Kgfr-63" value="" style="endArrow=classic;html=1;rounded=0;" parent="1" edge="1">
          <mxGeometry width="50" height="50" relative="1" as="geometry">
            <mxPoint x="-550" y="414.5" as="sourcePoint" />
            <mxPoint x="-510" y="415" as="targetPoint" />
          </mxGeometry>
        </mxCell>
        <mxCell id="qtnn5yiQqdt-8949Kgfr-64" value="" style="endArrow=classic;html=1;rounded=0;" parent="1" edge="1">
          <mxGeometry width="50" height="50" relative="1" as="geometry">
            <mxPoint x="-550" y="650" as="sourcePoint" />
            <mxPoint x="-455" y="650" as="targetPoint" />
          </mxGeometry>
        </mxCell>
        <mxCell id="qtnn5yiQqdt-8949Kgfr-65" value="" style="endArrow=classic;html=1;rounded=0;" parent="1" edge="1">
          <mxGeometry width="50" height="50" relative="1" as="geometry">
            <mxPoint x="-550" y="780" as="sourcePoint" />
            <mxPoint x="-400" y="780" as="targetPoint" />
          </mxGeometry>
        </mxCell>
        <mxCell id="qtnn5yiQqdt-8949Kgfr-70" value="" style="endArrow=block;dashed=1;endFill=0;endSize=12;html=1;rounded=0;" parent="1" edge="1">
          <mxGeometry width="160" relative="1" as="geometry">
            <mxPoint x="-295.5" y="245" as="sourcePoint" />
            <mxPoint x="-295.5" y="295" as="targetPoint" />
          </mxGeometry>
        </mxCell>
        <mxCell id="qtnn5yiQqdt-8949Kgfr-71" value="" style="endArrow=block;dashed=1;endFill=0;endSize=12;html=1;rounded=0;exitX=0.408;exitY=1.003;exitDx=0;exitDy=0;exitPerimeter=0;" parent="1" source="qtnn5yiQqdt-8949Kgfr-92" edge="1">
          <mxGeometry width="160" relative="1" as="geometry">
            <mxPoint x="-295" y="575" as="sourcePoint" />
            <mxPoint x="-295" y="570" as="targetPoint" />
          </mxGeometry>
        </mxCell>
        <mxCell id="qtnn5yiQqdt-8949Kgfr-72" value="" style="endArrow=block;dashed=1;endFill=0;endSize=12;html=1;rounded=0;" parent="1" edge="1">
          <mxGeometry width="160" relative="1" as="geometry">
            <mxPoint x="-305.5" y="690" as="sourcePoint" />
            <mxPoint x="-305" y="730" as="targetPoint" />
          </mxGeometry>
        </mxCell>
        <mxCell id="qtnn5yiQqdt-8949Kgfr-73" value="" style="shape=actor;whiteSpace=wrap;html=1;" parent="1" vertex="1">
          <mxGeometry x="-800" y="350" width="40" height="60" as="geometry" />
        </mxCell>
        <mxCell id="qtnn5yiQqdt-8949Kgfr-75" value="" style="strokeWidth=2;html=1;shape=mxgraph.flowchart.annotation_1;align=left;pointerEvents=1;dashed=1;direction=west;opacity=60;" parent="1" vertex="1">
          <mxGeometry x="-60" y="205" width="80" height="565" as="geometry" />
        </mxCell>
        <mxCell id="qtnn5yiQqdt-8949Kgfr-77" value="" style="strokeWidth=2;html=1;shape=mxgraph.flowchart.annotation_1;align=left;pointerEvents=1;dashed=1;direction=west;opacity=60;" parent="1" vertex="1">
          <mxGeometry x="-60" y="193" width="100" height="437" as="geometry" />
        </mxCell>
        <mxCell id="qtnn5yiQqdt-8949Kgfr-78" value="" style="endArrow=classic;html=1;rounded=0;" parent="1" edge="1">
          <mxGeometry width="50" height="50" relative="1" as="geometry">
            <mxPoint x="-210" y="174.5" as="sourcePoint" />
            <mxPoint x="-150" y="174.5" as="targetPoint" />
          </mxGeometry>
        </mxCell>
        <mxCell id="qtnn5yiQqdt-8949Kgfr-80" value="" style="endArrow=classic;html=1;rounded=0;" parent="1" edge="1">
          <mxGeometry width="50" height="50" relative="1" as="geometry">
            <mxPoint x="-150" y="185" as="sourcePoint" />
            <mxPoint x="-210" y="186" as="targetPoint" />
          </mxGeometry>
        </mxCell>
        <mxCell id="qtnn5yiQqdt-8949Kgfr-81" value="MongoDB" style="shape=cylinder3;whiteSpace=wrap;html=1;boundedLbl=1;backgroundOutline=1;size=15;fillColor=#cdeb8b;strokeColor=#36393d;" parent="1" vertex="1">
          <mxGeometry x="-143" y="135" width="60" height="80" as="geometry" />
        </mxCell>
        <mxCell id="qtnn5yiQqdt-8949Kgfr-82" value="" style="endArrow=classic;html=1;rounded=0;" parent="1" edge="1">
          <mxGeometry width="50" height="50" relative="1" as="geometry">
            <mxPoint x="-150" y="424.5" as="sourcePoint" />
            <mxPoint x="-90" y="424.5" as="targetPoint" />
          </mxGeometry>
        </mxCell>
        <mxCell id="qtnn5yiQqdt-8949Kgfr-84" value="" style="endArrow=classic;html=1;rounded=0;" parent="1" edge="1">
          <mxGeometry width="50" height="50" relative="1" as="geometry">
            <mxPoint x="-155" y="640" as="sourcePoint" />
            <mxPoint x="-215" y="641" as="targetPoint" />
          </mxGeometry>
        </mxCell>
        <mxCell id="qtnn5yiQqdt-8949Kgfr-85" value="" style="endArrow=classic;html=1;rounded=0;" parent="1" edge="1">
          <mxGeometry width="50" height="50" relative="1" as="geometry">
            <mxPoint x="-215" y="627.5" as="sourcePoint" />
            <mxPoint x="-155" y="627.5" as="targetPoint" />
          </mxGeometry>
        </mxCell>
        <mxCell id="qtnn5yiQqdt-8949Kgfr-86" value="" style="endArrow=classic;html=1;rounded=0;" parent="1" edge="1">
          <mxGeometry width="50" height="50" relative="1" as="geometry">
            <mxPoint x="-90" y="435" as="sourcePoint" />
            <mxPoint x="-150" y="436" as="targetPoint" />
          </mxGeometry>
        </mxCell>
        <mxCell id="qtnn5yiQqdt-8949Kgfr-87" value="PostgreSQL" style="shape=cylinder3;whiteSpace=wrap;html=1;boundedLbl=1;backgroundOutline=1;size=15;fillColor=#b1ddf0;strokeColor=#10739e;" parent="1" vertex="1">
          <mxGeometry x="-80" y="390" width="60" height="80" as="geometry" />
        </mxCell>
        <mxCell id="qtnn5yiQqdt-8949Kgfr-88" value="MongoDB" style="shape=cylinder3;whiteSpace=wrap;html=1;boundedLbl=1;backgroundOutline=1;size=15;fillColor=#cdeb8b;strokeColor=#36393d;" parent="1" vertex="1">
          <mxGeometry x="-148" y="588" width="60" height="80" as="geometry" />
        </mxCell>
        <mxCell id="qtnn5yiQqdt-8949Kgfr-89" value="RabbitMQ" style="shape=cylinder3;whiteSpace=wrap;html=1;boundedLbl=1;backgroundOutline=1;size=15;fillColor=#fad7ac;strokeColor=#b46504;" parent="1" vertex="1">
          <mxGeometry x="-150" y="720" width="60" height="80" as="geometry" />
        </mxCell>
        <mxCell id="qtnn5yiQqdt-8949Kgfr-90" value="" style="endArrow=classic;html=1;rounded=0;" parent="1" edge="1">
          <mxGeometry width="50" height="50" relative="1" as="geometry">
            <mxPoint x="-220" y="769" as="sourcePoint" />
            <mxPoint x="-160" y="769" as="targetPoint" />
          </mxGeometry>
        </mxCell>
        <mxCell id="qtnn5yiQqdt-8949Kgfr-91" value="" style="endArrow=classic;html=1;rounded=0;" parent="1" edge="1">
          <mxGeometry width="50" height="50" relative="1" as="geometry">
            <mxPoint x="-160" y="780" as="sourcePoint" />
            <mxPoint x="-220" y="781" as="targetPoint" />
          </mxGeometry>
        </mxCell>
        <mxCell id="177U5RdoVlw1FNKVNC9u-1" value="&lt;h1&gt;Микросервисная архитектура &quot;TASKFORCE&quot;&lt;/h1&gt;" style="text;html=1;align=center;verticalAlign=middle;resizable=0;points=[];autosize=1;strokeColor=none;fillColor=none;" parent="1" vertex="1">
          <mxGeometry x="-590" y="10" width="560" height="70" as="geometry" />
        </mxCell>
      </root>
    </mxGraphModel>
  </diagram>
</mxfile>
